#!OML:ASF H:\Terrain\Patient Classification 1\Walking\liu\liu.ASF
:FULLY-SPECIFIED
:DEGREES
250
root -2.88008 16.2117 -36.1124 3.32352 0.528504 -3.03828
lowerback 8.04985 2.09669 -1.04006
upperback -3.63109 2.80944 1.46833
thorax -8.49067 1.47438 1.7073
lowerneck -5.70625 2.09489 -1.29092
upperneck 9.06408 2.81388 1.33651
head 3.93304 1.40917 0.817337
rclavicle -2.30091e-014 -2.45996e-015
rhumerus -32.2965 1.29839 -78.8408
rradius 30.6308
rwrist 3.54255
rhand -19.8226 -26.5876
rfingers 7.12502
rthumb 6.51105 -56.4675
lclavicle -2.30091e-014 -2.45996e-015
lhumerus -27.1338 -3.65587 89.5852
lradius 24.6445
lwrist -29.2965
lhand -27.6398 31.2173
lfingers 7.12502
lthumb -1.03804 61.1945
rfemur -24.2036 -8.22074 14.5962
rtibia 52.2964
rfoot -28.3191 2.60894
rtoes -8.42607
lfemur -24.2136 6.4096 -7.97698
ltibia 50.308
lfoot -24.5117 0.970662
ltoes -11.2977
251
root -2.87705 16.2063 -36.1202 3.28617 0.585832 -3.09112
lowerback 8.21715 2.16172 -0.809506
upperback -3.67832 2.92457 1.47539
thorax -8.63259 1.51819 1.56078
lowerneck -5.41 3.40399 -0.244016
upperneck 9.10764 4.54928 0.561992
head 3.90797 2.26849 0.458946
rclavicle -1.0937e-015 1.16475e-015
rhumerus -32.5036 1.18015 -78.6548
rradius 30.8807
rwrist 3.42684
rhand -19.631 -26.7931
rfingers 7.12502
rthumb 6.69602 -56.6672
lclavicle -1.0937e-015 1.16475e-015
lhumerus -27.2413 -4.57359 89.9326
lradius 24.7014
lwrist -28.0641
lhand -26.931 31.7692
lfingers 7.12502
lthumb -0.353418 61.7487
rfemur -24.216 -8.34451 14.6419
rtibia 52.3511
rfoot -28.3136 2.64404
rtoes -8.64943
lfemur -24.3325 6.10462 -7.91934
ltibia 50.5004
lfoot -24.4621 1.17697
ltoes -11.7274
252
root -2.87361 16.2001 -36.1302 3.26392 0.652743 -3.10164
lowerback 8.43771 2.25288 -0.615101
upperback -3.65862 3.07052 1.48296
thorax -8.7355 1.57799 1.42875
lowerneck -5.26949 4.65627 0.842982
upperneck 9.19555 6.21658 -0.26989
head 3.97493 3.09303 0.0802834
rclavicle 1.93823e-014 -7.70291e-016
rhumerus -32.5661 1.13561 -78.4199
rradius 31.3201
rwrist 2.81194
rhand -18.8919 -27.8989
rfingers 7.12502
rthumb 7.40949 -57.7491
lclavicle 1.93823e-014 -7.70291e-016
lhumerus -27.1521 -5.77216 90.4304
lradius 24.851
lwrist -25.9115
lhand -25.6753 32.9782
lfingers 7.12502
lthumb 0.859323 62.9562
rfemur -24.2628 -8.43909 14.6326
rtibia 52.4126
rfoot -28.2972 2.65651
rtoes -9.12676
lfemur -24.5077 5.7415 -7.9222
ltibia 50.7437
lfoot -24.3936 1.4285
ltoes -12.0869
253
root -2.86978 16.1914 -36.1432 3.23549 0.799819 -3.18523
lowerback 8.65135 2.34586 -0.318852
upperback -3.64891 3.23272 1.49304
thorax -8.83904 1.63969 1.239
lowerneck -5.23626 5.65126 0.835019
upperneck 9.16909 7.54848 -0.194418
head 3.96365 3.75498 0.174004
rclavicle 7.38712e-014 2.66371e-014
rhumerus -32.7652 1.08707 -78.1831
rradius 31.867
rwrist 2.0204
rhand -18.1998 -29.2746
rfingers 7.12502
rthumb 8.07748 -59.1003
lclavicle 7.38712e-014 2.66371e-014
lhumerus -27.1144 -7.36165 91.0569
lradius 25.1726
lwrist -22.6429
lhand -24.2212 34.3715
lfingers 7.12502
lthumb 2.2637 64.3393
rfemur -24.3086 -8.531 14.7075
rtibia 52.5053
rfoot -28.311 2.53896
rtoes -9.84508
lfemur -24.7701 5.21522 -7.85522
ltibia 51.0678
lfoot -24.2448 1.80826
ltoes -12.6105
254
root -2.86694 16.1864 -36.16 3.30436 1.03506 -3.13852
lowerback 8.86701 2.44089 -0.1691
upperback -3.68132 3.379 1.47021
thorax -8.99454 1.70067 1.09724
lowerneck -4.98316 6.54889 1.55546
upperneck 9.13374 8.75517 -0.8074
head 3.98094 4.35015 -0.0934054
rclavicle -5.12472e-015 4.42296e-015
rhumerus -33.0582 1.2448 -77.9847
rradius 32.5675
rwrist 0.799437
rhand -17.7698 -30.8868
rfingers 7.12502
rthumb 8.49246 -60.696
lclavicle -5.12472e-015 4.42296e-015
lhumerus -27.0383 -9.36252 91.8435
lradius 25.8335
lwrist -17.4644
lhand -21.9145 37.1687
lfingers 7.12502
lthumb 4.49134 67.1011
rfemur -24.4823 -8.64217 14.6533
rtibia 52.6467
rfoot -28.2927 2.34788
rtoes -11.5679
lfemur -25.2353 4.68448 -7.95478
ltibia 51.457
lfoot -24.0671 2.06618
ltoes -12.7382
255
root -2.86337 16.171 -36.1815 3.44352 1.38642 -3.10446
lowerback 9.0371 2.51449 -0.00889902
upperback -3.68734 3.49895 1.4625
thorax -9.09355 1.74854 0.971802
lowerneck -4.82286 7.35977 2.08499
upperneck 9.00773 9.84816 -1.28649
head 3.98249 4.88869 -0.287084
rclavicle -5.30274e-015 -1.39149e-014
rhumerus -33.29 1.63455 -77.8469
rradius 33.3726
rwrist -0.570326
rhand -17.7146 -32.7694
rfingers 7.12502
rthumb 8.54581 -62.5765
lclavicle -5.30274e-015 -1.39149e-014
lhumerus -26.9901 -11.3555 92.6369
lradius 26.6029
lwrist -12.5262
lhand -21.1412 38.1064
lfingers 7.12502
lthumb 5.238 68.0216
rfemur -24.7633 -8.82659 14.618
rtibia 52.8387
rfoot -28.2759 2.02664
rtoes -12.0572
lfemur -25.8063 4.11555 -8.04958
ltibia 51.9366
lfoot -23.976 2.14742
ltoes -11.8164
256
root -2.86146 16.1551 -36.2082 3.70195 1.90968 -3.08104
lowerback 9.19746 2.52942 0.143676
upperback -3.74615 3.54398 1.48809
thorax -9.24519 1.76147 0.89762
lowerneck -4.54662 8.09258 2.5082
upperneck 8.71477 10.8463 -1.78608
head 3.9078 5.37826 -0.482338
rclavicle -9.76491e-015 -2.28602e-015
rhumerus -33.4715 2.21777 -77.708
rradius 34.1766
rwrist -1.64922
rhand -17.6707 -34.5315
rfingers 7.12502
rthumb 8.5881 -64.3368
lclavicle -9.76491e-015 -2.28602e-015
lhumerus -26.9747 -13.5209 93.5612
lradius 27.8695
lwrist -6.64876
lhand -20.1837 39.0166
lfingers 7.12502
lthumb 6.16251 68.9069
rfemur -25.2141 -9.03929 14.6277
rtibia 53.099
rfoot -28.2183 1.69463
rtoes -12.7288
lfemur -26.7581 3.86392 -8.26115
ltibia 52.4873
lfoot -23.6831 2.58623
ltoes -11.6011
